# xmcd
# 
# Track frame offsets:
#     150
#     14622
#     36465
#     57252
# 
# Disc length: 984
# 
# Revision: 0
# Processed by: cddbd v1.5.2PL0 Copyright (c) Steve Scherf et al.
# Submitted via: fre:ac v1.0.17
# 
DISCID=3203d604
DTITLE=The Earthmen - Whoever's Been Using This Bed
DYEAR=1996
DGENRE=
TTITLE0=Whoever's Been Using This Bed
TTITLE1=Whoever's Been Using This Bed (The Jive Bunny Mix)
TTITLE2=College Heart
TTITLE3=Whoever's Been Using This Bed (Instrumental)
EXTD=
EXTT0=
EXTT1=
EXTT2=
EXTT3=
PLAYORDER=
